<mxfile host="app.diagrams.net" modified="2024-05-28T05:55:02.739Z" agent="Mozilla/5.0 (Windows NT 10.0; Win64; x64; rv:126.0) Gecko/20100101 Firefox/126.0" version="24.4.8" etag="bEbsgvZ43Vo-dBCyQluz" type="github">
  <diagram name="第 1 页" id="wWjbk6wUaq27b7PUXzs3">
    <mxGraphModel>
      <root>
        <mxCell id="0" />
        <mxCell id="1" parent="0" />
      </root>
    </mxGraphModel>
  </diagram>
</mxfile>
